<svg xmlns="http://www.w3.org/2000/svg" width="28" height="44" viewBox="0 0 28 44"><defs><style>.a,.b{fill:#2d9d7f;}.a{font-size:10px;font-family:Nunito-Regular, Nunito;}</style></defs><g transform="translate(-30 -682)"><text class="a" transform="translate(44 722)"><tspan x="-13.46" y="0">Home</tspan></text><g transform="translate(33 682)"><path class="b" d="M347.827,350.188c0-.7,0-1.407,0-2.111a3.985,3.985,0,0,0-.04-.7c-.252-1.347-1.293-1.774-3.9-1.608-1.3.083-2.068.729-2.1,1.9-.048,1.562.005,3.128-.009,4.691-.017,1.851-.64,2.461-2.476,2.477-2.629.023-2.847-.156-3.55-2.7-.572-2.069-1.173-4.13-1.772-6.191a2.262,2.262,0,0,1,.615-2.45c2.853-2.841,5.669-5.718,8.5-8.581,1.255-1.27,2.13-1.278,3.373-.022,2.832,2.861,5.646,5.74,8.5,8.576a2.283,2.283,0,0,1,.665,2.441c-.687,2.4-1.4,4.8-2.067,7.2a2.068,2.068,0,0,1-2.29,1.724c-.429-.019-.86.014-1.29,0a1.955,1.955,0,0,1-2.166-2.188c-.021-.821,0-1.642,0-2.463Z" transform="translate(-333.851 -333.958)"/></g></g></svg>