<svg xmlns="http://www.w3.org/2000/svg" width="19.506" height="20.269" viewBox="0 0 19.506 20.269"><defs><style>.a{fill:#707070;}</style></defs><path class="a" d="M110.541,95.254c-.223,0-.445,0-.707,0,0-.375-.008-.71,0-1.046.008-.22-.066-.344-.3-.355a1.465,1.465,0,0,1-.217-.044V86.075c.51-.081.511-.081.513-.572,0-.278,0-.556,0-.868.258,0,.47-.006.682,0a.364.364,0,0,0,.38-.366c0-.629.016-1.259-.012-1.888a.572.572,0,0,0-.267-.4c-.755-.379-1.526-.725-2.292-1.083-.171-.081-.362-.158-.465.067s.053.34.252.426c.386.168.765.355,1.233.574H93.017a.679.679,0,0,1,.091-.072q3.906-1.821,7.811-3.646a.528.528,0,0,1,.5.013q2.553,1.2,5.114,2.392c.176.082.384.176.5-.058s-.071-.337-.259-.425c-1.79-.829-3.576-1.665-5.371-2.482a.725.725,0,0,0-.53.005c-1.049.47-2.087.965-3.129,1.45-1.994.93-3.986,1.864-5.985,2.784a.628.628,0,0,0-.367.594c.021.518.005,1.038.005,1.557,0,.535.027.561.547.561h.473a.712.712,0,0,1,.04.117c0,.225.007.451.007.676,0,.543,0,.543.54.666v1.5q0,3,0,5.992c0,.182-.045.276-.239.273-.232,0-.31.126-.3.348.012.335,0,.671,0,1.043-.238,0-.438.008-.637,0-.3-.015-.435.115-.431.418.008.576,0,1.151,0,1.727,0,.457.044.5.5.5h11.475c.079,0,.179.026.232-.012.1-.069.214-.168.231-.271.012-.064-.129-.18-.224-.231a.61.61,0,0,0-.266-.013H92.422c-.153,0-.305-.013-.45-.02V95.821h18.365V97.37h-.552q-2.319,0-4.637,0c-.2,0-.4.031-.38.263a.413.413,0,0,0,.308.255c1.828.016,3.656.012,5.484.012.314,0,.41-.223.28-.656A2.133,2.133,0,0,1,110.825,96C110.982,95.483,110.88,95.252,110.541,95.254ZM93,85.482v-.82h2.968v.82Zm2.967,9.761H93v-.83h2.966ZM99.642,93.8c-.525.141-.525.141-.524.7v.728H96.5c0-.362,0-.708,0-1.056,0-.19-.075-.315-.271-.307-.269.012-.276-.145-.275-.347q.016-3.044.022-6.09c0-.449,0-.9,0-1.341.522-.125.522-.125.522-.662v-.795a4.89,4.89,0,0,0,.759-.012c.109-.019.13-.447.026-.5a.707.707,0,0,0-.3-.019H91.965V82.56h18.378v1.518c-.119.009-.226.024-.334.024l-11.066,0c-.068,0-.153-.023-.2.009-.112.078-.114.465,0,.514a1.161,1.161,0,0,0,.372.007v.833c0,.521,0,.521.524.609Zm2.994,1.429h-2.96v-.817h2.96Zm-2.958-9.75v-.843c.946,0,1.866,0,2.785.008a.26.26,0,0,1,.177.178,5.9,5.9,0,0,1,.009.657Zm6.651,8.333a1.507,1.507,0,0,1-.235.045c-.234.009-.3.139-.3.355.009.336,0,.671,0,1.024h-2.616V94.43c0-.512,0-.512-.53-.615V86.094c.529-.131.529-.131.53-.694v-.737H105.8V85.5c0,.495,0,.495.532.571Zm2.974,1.423h-2.966v-.83H109.3Zm.007-9.764h-2.97v-.814h2.97Z" transform="translate(-91.395 -77.637)"/></svg>