<svg xmlns="http://www.w3.org/2000/svg" width="21.345" height="21.603" viewBox="0 0 21.345 21.603"><defs><style>.a,.b{fill:#66c7b1;}.a{opacity:0.5;}</style></defs><g transform="translate(0)"><path class="a" d="M1194.544-162.578v-.269c0-4.474,0-11.746,0-16.22a2.159,2.159,0,0,1,.652-1.615,1.917,1.917,0,0,1,1.342-.571c.336,0,.672,0,1.007,0,9.174,0,6.964.018,16.138,0a2.18,2.18,0,0,1,2.15,1.675,2.824,2.824,0,0,1,.047.54c0,5.735-.006,11.47.009,17.205a2.186,2.186,0,0,1-2.264,2.182c-2.84-.035-5.681-.011-8.521-.012-3.339,0-6.084-.011-9.423-.011h-.343c.078-.1.111-.15.15-.192a5.07,5.07,0,0,0,1.068-1.774.266.266,0,0,1,.3-.2c1.261.006,1.927.011,3.189.011h13.285c.392,0,.395,0,.395-.385q0-8.235,0-16.47c0-.384,0-.384-.383-.384-9.22,0-7.055-.009-16.275-.017-.282,0-.351.083-.35.352.007,3.721,0,10.24.009,13.96a.778.778,0,0,1-.332.728c-.583.426-1.128.9-1.689,1.359C1194.673-162.658,1194.634-162.637,1194.544-162.578Z" transform="translate(-1194.544 181.256)"/><path class="b" d="M1542.361-72.881a2.946,2.946,0,0,1-3.006,2.945,2.949,2.949,0,0,1-2.922-2.988,2.992,2.992,0,0,1,2.962-2.951A2.977,2.977,0,0,1,1542.361-72.881Z" transform="translate(-1528.433 81.613)"/><path class="b" d="M1504.965,49.844a2.885,2.885,0,0,1,.8-2.07,4.455,4.455,0,0,1,2.269-1.2,6.835,6.835,0,0,1,3.494.07,4.163,4.163,0,0,1,2.078,1.214,3.14,3.14,0,0,1,.739,1.773c.023.21-.1.212-.249.211-.97,0-1.941,0-2.911,0h-6.222Z" transform="translate(-1498.965 -33.987)"/></g></svg>