<svg xmlns="http://www.w3.org/2000/svg" width="37.492" height="37.493" viewBox="0 0 37.492 37.493"><defs><style>.a,.c{fill:#68a330;}.a{opacity:0.3;}.b{fill:#4b7722;}.d{fill:#efffe0;}</style></defs><g transform="translate(-87 -526)"><path class="a" d="M599.731,313.123a18.747,18.747,0,1,1,18.727-18.835A18.73,18.73,0,0,1,599.731,313.123Zm-.057-1.683a17.064,17.064,0,1,0-17.032-17.065A17.114,17.114,0,0,0,599.674,311.44Z" transform="translate(-493.966 250.37)"/><g transform="translate(-594.527 483.002)"><path class="b" d="M730.333,85.15l13.134-7.626V74.167l-13.134,7.691Z" transform="translate(-32.58 -15.821)"/><path class="b" d="M697.753,97.083l-7.92-4.726V89l7.916,4.795Z" transform="translate(0 -27.754)"/><path class="c" d="M689.833,61.246,702.9,54.5l7.985,3.846-13.138,7.7Z" transform="translate(0)"/><path class="d" d="M719.884,63.9l-3.636-1.759a3.163,3.163,0,0,1-1.178.212,3.24,3.24,0,0,1-1.083-.176l-9.018,4.655a.893.893,0,0,1,.544.719.792.792,0,0,1-.383.617l3.585,2.236A2.811,2.811,0,0,1,710,70.127a2.862,2.862,0,0,1,1.241.258l8.584-5.028a.885.885,0,0,1-.529-.71A.919.919,0,0,1,719.884,63.9Zm-10.561,4.142c-.458,0-.83-.192-.83-.43s.371-.43.83-.43.83.192.83.43S709.781,68.046,709.323,68.046Zm3.434-.995c-1.261,0-2.284-.53-2.284-1.183s1.023-1.183,2.284-1.183,2.284.53,2.284,1.183S714.018,67.051,712.757,67.051Zm3.3-2.562c-.458,0-.83-.192-.83-.43s.372-.43.83-.43.83.192.83.43S716.515,64.49,716.057,64.49Z" transform="translate(-12.177 -6.15)"/></g></g></svg>