<svg xmlns="http://www.w3.org/2000/svg" width="27.701" height="28.881" viewBox="0 0 27.701 28.881"><defs><style>.a{fill:#c1c1c1;}</style></defs><path class="a" d="M324.031,163.847a13.961,13.961,0,0,0-7.3-8.18l.11-.082a9.806,9.806,0,0,0,3.637-10.08,10.466,10.466,0,0,0-20.151-.1,9.773,9.773,0,0,0,3.721,10.251,13.712,13.712,0,0,0-7.319,8.334,1.887,1.887,0,0,0,.839,2.606l.156.115h1.243l.177-.252c.078-.111.171-.225.27-.345a3.3,3.3,0,0,0,.651-1.042A10.629,10.629,0,0,1,310.1,157.8a10.513,10.513,0,0,1,9.326,4.639,9.128,9.128,0,0,1,.835,1.624c.154.354.313.719.5,1.073a8.6,8.6,0,0,0,.587.934c.086.124.171.248.253.373l.176.269h1.415l.161-.126A2.215,2.215,0,0,0,324.031,163.847Zm-6.821-15.605a6.187,6.187,0,0,1-2.831,4.786,7,7,0,0,1-8.805-.691,5.862,5.862,0,0,1-1.756-6.227,6.462,6.462,0,0,1,5.074-4.615,7.655,7.655,0,0,1,1.065-.15c.172-.016.344-.033.515-.053a7.06,7.06,0,0,1,5.073,2.234A6.164,6.164,0,0,1,317.21,148.241Z" transform="translate(-296.527 -137.835)"/></svg>