<svg xmlns="http://www.w3.org/2000/svg"  viewBox="0 0 26.555 14.848"><defs><style>.a,.b{fill:#9f85e5;}.a{stroke:rgba(0,0,0,0);stroke-miterlimit:10;opacity:0.4;}</style></defs><g transform="translate(0.5)"><path class="a" d="M2,11.2V9.123H9.29V11.2ZM0,6.758V4.685H11.262V6.758ZM0,2.079V0h11.26V2.079Z" transform="translate(0 2.374)"/><path class="b" d="M310.667,151.208A7.178,7.178,0,0,0,306.916,147l.056-.042a5.041,5.041,0,0,0,1.87-5.182,5.381,5.381,0,0,0-10.36-.049A5.024,5.024,0,0,0,300.4,147a7.05,7.05,0,0,0-3.763,4.285.97.97,0,0,0,.431,1.34l.08.059h.639l.091-.13c.04-.057.088-.115.139-.177a1.7,1.7,0,0,0,.335-.536A5.465,5.465,0,0,1,303.5,148.1a5.405,5.405,0,0,1,4.795,2.385,4.7,4.7,0,0,1,.429.835c.079.182.161.37.255.552a4.424,4.424,0,0,0,.3.48c.044.064.088.127.13.192l.09.138h.727l.083-.065A1.139,1.139,0,0,0,310.667,151.208Zm-3.507-8.023a3.181,3.181,0,0,1-1.456,2.461,3.6,3.6,0,0,1-4.527-.355,3.014,3.014,0,0,1-.9-3.2,3.322,3.322,0,0,1,2.609-2.373,3.933,3.933,0,0,1,.547-.077c.088-.008.177-.017.265-.027a3.63,3.63,0,0,1,2.608,1.149A3.169,3.169,0,0,1,307.16,143.185Z" transform="translate(-284.713 -137.835)"/></g></svg>