<svg xmlns="http://www.w3.org/2000/svg" width="33.202" height="29.882" viewBox="0 0 33.202 29.882"><defs><style>.a{fill:#aaa;}</style></defs><path class="a" d="M-2093.68-969.118a3.33,3.33,0,0,1-3.32-3.321V-992.36a3.33,3.33,0,0,1,3.32-3.32h5.262l3.039-3.32h9.96l3.038,3.32h5.263a3.33,3.33,0,0,1,3.32,3.32v19.921a3.331,3.331,0,0,1-3.32,3.321Zm13.28-4.981a8.3,8.3,0,0,0,8.3-8.3,8.3,8.3,0,0,0-8.3-8.3,8.3,8.3,0,0,0-8.3,8.3A8.3,8.3,0,0,0-2080.4-974.1Zm-5.312-8.3a5.306,5.306,0,0,1,5.312-5.312,5.306,5.306,0,0,1,5.313,5.312,5.307,5.307,0,0,1-5.313,5.313A5.306,5.306,0,0,1-2085.711-982.4Z" transform="translate(2097 999)"/></svg>