<svg xmlns="http://www.w3.org/2000/svg" width="30" height="30" viewBox="0 0 30 30"><defs><style>.a{fill:#2d9d7f;}.b{fill:#fff;}</style></defs><g transform="translate(-30 -49)"><circle class="a" cx="15" cy="15" r="15" transform="translate(30 49)"/><path class="b" d="M308.442,149.1a6.048,6.048,0,0,0-3.161-3.544l.047-.036a4.248,4.248,0,0,0,1.576-4.366,4.534,4.534,0,0,0-8.729-.042,4.233,4.233,0,0,0,1.612,4.441,5.94,5.94,0,0,0-3.171,3.61.817.817,0,0,0,.363,1.129l.068.05h.539l.077-.109c.034-.048.074-.1.117-.149a1.43,1.43,0,0,0,.282-.452,4.6,4.6,0,0,1,4.345-3.151,4.554,4.554,0,0,1,4.04,2.01,3.956,3.956,0,0,1,.362.7c.067.153.135.311.215.465a3.73,3.73,0,0,0,.254.4c.037.054.074.107.11.162l.076.116h.613l.07-.054A.959.959,0,0,0,308.442,149.1Zm-2.955-6.76a2.68,2.68,0,0,1-1.227,2.073,3.033,3.033,0,0,1-3.814-.3,2.539,2.539,0,0,1-.761-2.7,2.8,2.8,0,0,1,2.2-2,3.315,3.315,0,0,1,.461-.065c.074-.007.149-.014.223-.023a3.059,3.059,0,0,1,2.2.968A2.67,2.67,0,0,1,305.487,142.343Z" transform="translate(-257.527 -79.834)"/></g></svg>