<svg xmlns="http://www.w3.org/2000/svg" width="20.236" height="23.004" viewBox="0 0 20.236 23.004"><defs><style>.a{fill:#78a1fd;}</style></defs><path class="a" d="M866.7,681.175l-.86-.078-.517-.046-.2-.017c-.47-.048-.956-.1-1.43-.159a20.074,20.074,0,0,1-6.361-1.893,1.652,1.652,0,0,0-.75-.187h-.012a1.648,1.648,0,0,0-.746.187,20.075,20.075,0,0,1-6.361,1.893c-.478.062-.966.112-1.438.159l-.176.016-.528.047-.86.078.065.862c.016.215.031.441.044.69-.006.38-.01.785.018,1.189.025.373.045.754.065,1.138a21.99,21.99,0,0,0,.461,4.256,18.5,18.5,0,0,0,3.065,6.958,21.563,21.563,0,0,0,5.523,5.243,1.519,1.519,0,0,0,.862.287h.01l.005-.293.005.293h.01a1.518,1.518,0,0,0,.862-.287,20.653,20.653,0,0,0,6.656-7.027.941.941,0,0,0,.09-.163,18.727,18.727,0,0,0,1.841-5.007,21.968,21.968,0,0,0,.462-4.256c.02-.387.039-.766.065-1.143.028-.4.024-.809.018-1.189.013-.249.027-.475.044-.69Zm-3.041,8.177q-.021.082-.043.16c-.053.192-.113.393-.184.615-.336.88-.425,1.15-.461,1.286-.2.457-.916,1.89-1.13,2.284l-.168.252c-.073.11-.144.217-.214.323a18.388,18.388,0,0,1-4.878,4.977,18.382,18.382,0,0,1-4.878-4.977l-.238-.361-.17-.257a17.3,17.3,0,0,1-1.747-4.143c-.015-.053-.029-.106-.043-.16l.016-.014-.118-.512a24.2,24.2,0,0,1-.432-4.7v-.017c-.007-.254-.014-.512-.023-.771l.564-.093.332-.055a23.25,23.25,0,0,0,6.66-1.919l.051-.018.026,0,.026,0,.051.018a23.226,23.226,0,0,0,6.653,1.918l.34.056.563.093c-.009.265-.016.529-.023.788a24.2,24.2,0,0,1-.432,4.7l-.118.512Z" transform="translate(-846.468 -678.795)"/></svg>